<?xml version="1.0" standalone="no"?>

<svg viewBox="0 0 218 69" style="background-color:#ffffff00" version="1.1" xmlns="http://www.w3.org/2000/svg" xmlns:xlink="http://www.w3.org/1999/xlink" xml:space="preserve" x="0px" y="0px" width="100%" height="100%">
	<path d="M 48 17.9 C 44.8 10.9 37.4 6 28.8 6 C 17.3 6 8 14.8 8 25.7 C 8 36.6 17.3 45.4 28.8 45.4 C 30.2 45.4 31.4 45.3 32.7 45.1 L 31.6 42.7 C 30.7 42.8 29.8 42.9 28.8 42.9 C 18.8 42.9 10.7 35.2 10.7 25.7 C 10.7 16.2 18.8 8.5 28.8 8.5 C 36 8.5 42.1 12.4 45.1 18 " fill="#005efe"/>
	<path d="M 31 43.5 L 48 56 L 44.6 40 " stroke="#005efe" stroke-width="3" fill="none"/>
	<path d="M 28.5 37.7 C 31.4 37.7 34.2 36.7 36.4 35.2 L 34.2 36.3 L 29.8 28.9 L 26.7 30.4 L 24.4 17.1 L 35.2 25.9 L 32.3 27.6 L 36.7 34.9 C 39.6 32.7 41.6 29.2 41.6 25.3 C 41.6 18.4 35.7 12.9 28.5 12.9 C 21.2 12.9 15.3 18.4 15.3 25.3 C 15.3 32.1 21.2 37.7 28.5 37.7 Z" fill="#00c300"/>
	<g>
		<path d="M 55.4 19.7 C 55.1 21.3 54.7 22.9 54.4 24.5 C 54.1 25.9 53.9 27.4 53.6 28.8 C 53.3 30.2 53 31.5 52.7 32.9 C 52.4 34.6 52.1 36.2 51.9 37.9 C 51.7 36.4 51.5 34.8 51.2 33.2 C 50.9 31.3 50.5 29.3 50.1 27.4 C 49.5 24.9 49 22.3 48.5 19.6 L 46 19.6 L 50.4 40.3 L 53.4 40.3 C 53.7 38.3 54.1 36.5 54.5 34.7 C 54.9 32.5 55.5 30.4 55.9 28.3 C 56.3 26.5 56.6 24.7 56.8 22.9 C 57 23.9 57.2 25 57.4 26 C 57.7 27.6 58.1 29.2 58.5 30.9 C 58.8 32.3 59.1 33.8 59.4 35.3 C 59.7 36.9 60.1 38.5 60.5 40.3 L 63.2 40.3 L 67.7 19.7 L 65.1 19.7 C 64.7 22.3 64.3 24.7 63.8 27.1 C 63.4 29.1 62.9 31.1 62.5 33.1 C 62.2 34.6 62 36.1 61.9 37.6 C 61.6 35.7 61.4 33.9 61 32 C 60.7 30.2 60.2 28.3 59.8 26.5 C 59.3 24.3 58.8 22 58.3 19.7 L 55.4 19.7 L 55.4 19.7 Z" fill="#005efe"/>
		<path d="M 80.3 33.3 C 80.3 31.3 80.2 28.4 78.8 26.5 C 77.9 25.5 76.5 24.9 75 24.9 C 73.7 24.9 72.7 25.4 72.3 25.7 C 71.8 26 71.2 26.5 70.9 27 C 69.6 29.3 69.7 32.9 69.7 33.3 C 69.7 35.9 70.1 37.1 70.9 38.2 C 71.9 39.6 73.2 40.1 75 40.1 C 77.2 40.1 78.3 39.2 78.8 38.5 C 79.8 37.5 79.9 36.6 80 35.4 L 77.9 35.4 C 77.5 37.1 77.2 37.8 76.2 38.3 C 75.8 38.5 75.3 38.5 75.1 38.5 C 73.7 38.5 73 37.6 72.8 37.2 C 72.2 36.2 72.2 34.5 72.1 33.3 L 80.3 33.3 L 80.3 33.3 ZM 72.1 31.7 C 72.2 30.7 72.4 28.7 72.9 27.8 C 73.4 27 74.2 26.5 75.1 26.5 C 75.5 26.5 76.4 26.6 77.1 27.7 C 77.7 28.8 77.8 30.4 77.8 31.7 L 72.1 31.7 L 72.1 31.7 Z" fill="#005efe"/>
		<path d="M 83.2 19.7 L 83.2 39.8 L 84.8 39.8 L 84.8 38.4 C 85.6 39.1 86.2 39.7 87.3 39.9 C 87.8 40.1 88.1 40.1 88.6 40.1 C 89.3 40.1 90.9 40 92.1 38.8 C 93.1 37.6 93.8 35.6 93.8 32.2 C 93.8 30.2 93.3 27.1 91.6 25.7 C 90.5 25 89.2 24.9 88.8 24.9 C 87.3 24.9 86.3 25.5 85.9 25.8 C 85.7 25.9 85.5 26.1 85.1 26.5 L 85.1 19.7 L 83.2 19.7 L 83.2 19.7 ZM 84.9 32.7 C 84.8 29.7 85.2 28 86.5 27 C 87.2 26.6 87.8 26.5 88.2 26.5 C 91.2 26.5 91.4 30.2 91.4 32.1 C 91.4 33.6 91.4 36 90.4 37.4 C 89.7 38.4 88.6 38.5 88.1 38.5 C 86.8 38.5 85.9 37.8 85.5 36.8 C 85.1 36 84.9 34.7 84.9 32.7 L 84.9 32.7 Z" fill="#005efe"/>
		<path d="M 116 25.2 C 116 23.8 115.9 23.2 115.6 22.5 C 115.4 22.1 115.1 21.5 114.3 20.9 C 112.7 19.8 110.8 19.8 110.1 19.8 C 107.5 19.8 105.2 20.8 104.4 23.1 C 104.1 23.9 104.1 24.7 104.1 25 C 104.1 27.1 105 28.3 105.6 28.8 C 106.3 29.5 107.8 30.2 110 30.9 C 111.1 31.3 112.8 31.8 113.5 32.7 C 114 33.4 114 34.6 114 34.8 C 114 35.6 113.8 36.3 113.4 37 C 112.9 37.8 112 38.5 110 38.5 C 107.9 38.5 107 37.4 106.6 36.7 C 106.3 36 106.3 35.2 106.2 33.7 L 103.6 33.7 C 103.6 35.2 103.7 35.8 103.9 36.6 C 104.3 37.7 105 38.8 106.1 39.3 C 107.6 40.1 109.7 40.1 110.1 40.1 C 110.5 40.1 111.6 40.1 112.8 39.8 C 115 39.2 115.8 37.7 116.1 36.9 C 116.5 35.9 116.5 34.9 116.5 34.5 C 116.5 32.3 115.8 31.3 115 30.6 C 114 29.7 112.8 29.3 111.5 28.8 C 108.9 27.9 107.6 27.6 106.9 26.4 C 106.5 25.7 106.5 25 106.5 24.7 C 106.5 24.2 106.6 22.9 107.8 22 C 108.7 21.4 109.7 21.4 110.1 21.4 C 111.2 21.4 112 21.6 112.7 22.5 C 113.5 23.3 113.5 24.2 113.5 25.2 L 116 25.2 L 116 25.2 Z" fill="#005efe"/>
		<path d="M 120.3 25.2 L 120.3 45.4 L 122.1 45.4 L 122.1 38.6 C 122.7 39.1 122.9 39.3 123.3 39.5 C 124.2 40 125.2 40.1 125.7 40.1 C 126.5 40.1 127.3 39.9 127.5 39.8 C 129 39.2 130.2 37.9 130.7 34.7 C 130.9 33.5 130.9 32.6 130.9 32.1 C 130.9 31.3 130.9 29.7 130.1 27.8 C 129.8 27 129.5 26.5 129.3 26.3 C 128.2 25.1 126.4 24.9 125.8 24.9 C 123.9 24.9 123 25.7 122.5 26.1 C 122.3 26.3 122.1 26.5 121.9 26.8 L 121.9 25.2 L 120.3 25.2 L 120.3 25.2 ZM 122 32.4 C 122 31.1 122.1 29.1 122.8 27.9 C 123.3 27.1 124.1 26.5 125.2 26.5 C 125.7 26.5 126.8 26.7 127.5 27.7 C 128.4 29 128.5 31 128.5 32.4 C 128.5 34.1 128.4 37.1 126.6 38.1 C 126 38.4 125.4 38.5 125.1 38.5 C 124 38.5 123.1 37.7 122.6 36.9 C 121.9 35.4 122 32.6 122 32.4 L 122 32.4 Z" fill="#005efe"/>
		<path d="M 143.6 33.3 C 143.6 31.3 143.6 28.4 142.2 26.5 C 141.3 25.5 139.8 24.9 138.4 24.9 C 137 24.9 136 25.4 135.6 25.7 C 135.1 26 134.6 26.5 134.2 27 C 133 29.3 133 32.9 133 33.3 C 133 35.9 133.4 37.1 134.3 38.2 C 135.3 39.6 136.6 40.1 138.3 40.1 C 140.5 40.1 141.6 39.2 142.2 38.5 C 143.1 37.5 143.2 36.6 143.3 35.4 L 141.2 35.4 C 140.8 37.1 140.6 37.8 139.6 38.3 C 139.1 38.5 138.6 38.5 138.4 38.5 C 137 38.5 136.4 37.6 136.2 37.2 C 135.6 36.2 135.5 34.5 135.5 33.3 L 143.6 33.3 L 143.6 33.3 ZM 135.5 31.7 C 135.6 30.7 135.8 28.7 136.3 27.8 C 136.7 27 137.6 26.5 138.4 26.5 C 138.8 26.5 139.8 26.6 140.4 27.7 C 141.1 28.8 141.1 30.4 141.2 31.7 L 135.5 31.7 L 135.5 31.7 Z" fill="#005efe"/>
		<path d="M 155.4 29.8 C 155.3 28.5 155.3 27.4 154.6 26.3 C 154.4 25.9 154 25.7 153.9 25.6 C 152.8 24.9 151.2 24.9 150.9 24.9 C 150.5 24.9 149.7 24.9 148.8 25.3 C 148.2 25.6 147.6 26.1 147.1 26.6 C 145.9 28.4 145.7 30.4 145.7 32.5 C 145.7 34.8 146 36.5 146.4 37.3 C 146.8 38.3 148.1 40.1 150.9 40.1 C 153 40.1 154 39.3 154.5 38.7 C 155.2 37.6 155.3 36.2 155.4 34.8 L 153.8 34.6 C 153.7 35.7 153.5 37.5 152.5 38.1 C 151.9 38.5 151.2 38.5 151 38.5 C 150.1 38.5 149.5 38.3 149 37.6 C 148.6 37 148.4 36.2 148.3 35.4 C 148.3 34.8 148.1 33.8 148.1 32.3 C 148.1 30.3 148.4 28.8 148.8 28 C 149.2 27.1 149.8 26.8 150.2 26.7 C 150.7 26.5 151 26.5 151.2 26.5 C 152.4 26.5 153.2 27.2 153.6 28.4 C 153.6 28.7 153.7 29.1 153.8 29.8 L 155.4 29.8 L 155.4 29.8 Z" fill="#005efe"/>
		<path d="M 157.2 24.9 L 157.2 26.5 L 159.3 26.5 L 159.3 37.7 C 159.3 38.1 159.3 38.5 159.5 38.9 C 159.6 39.1 159.8 39.3 160 39.5 C 160.9 40.2 161.9 40.2 164 40.1 L 164 38.5 C 162 38.6 161.8 38.3 161.6 37.1 L 161.7 28 L 161.7 26.5 L 164.1 26.5 L 164.1 24.9 L 161.7 24.9 L 161.7 21 L 159.3 21 L 159.3 24.9 L 157.2 24.9 L 157.2 24.9 Z" fill="#005efe"/>
		<path d="M 166.5 25.1 L 166.5 40.2 L 168.8 40.2 L 168.9 29.6 C 169 28.8 169.2 28.1 169.7 27.5 C 170.5 26.5 171.7 26.5 172.9 26.5 L 172.9 24.9 C 170.7 25 170.3 25.2 168.9 26.4 L 168.9 25.1 L 166.5 25.1 L 166.5 25.1 Z" fill="#005efe"/>
		<path d="M 178 24.8 L 175.6 24.8 L 175.6 34.8 C 175.5 36.9 175.6 37.8 176.3 38.7 C 176.7 39.2 177.7 40.1 179.4 40.1 C 179.8 40.1 181 40 182 39.2 C 182.4 38.9 182.6 38.7 182.9 38.4 L 182.9 39.8 L 185.2 39.8 L 185.2 24.8 L 182.8 24.8 L 182.8 33.8 C 182.7 35.5 182.7 36.4 182.3 37.2 C 181.6 38.3 180.5 38.5 180.1 38.5 C 177.9 38.5 178 36 178 35.5 L 178 24.8 L 178 24.8 Z" fill="#005efe"/>
		<path d="M 189.1 25.2 L 189.1 40.2 L 191.6 40.2 L 191.6 29.3 C 191.8 28 192 27.4 193.1 26.9 C 193.6 26.5 194 26.5 194.3 26.5 C 194.7 26.5 195.1 26.6 195.4 26.9 C 196.3 27.4 196.3 28.3 196.4 29.3 L 196.4 40.2 L 198.8 40.2 L 198.8 29.3 C 198.8 28.9 198.9 28.7 199 28.3 C 199.4 27.3 200.5 26.5 201.5 26.5 C 201.8 26.5 202.4 26.6 202.9 27 C 203.6 27.6 203.6 28.4 203.6 29.3 L 203.6 40.2 L 206 40.2 L 206 28.9 C 206.1 28.2 206.1 27.5 205.9 26.9 C 205.4 25.6 203.8 25.2 203.3 25.1 C 202.9 25 202.6 25 202.4 25 C 202 25 200.6 25 199.6 25.7 C 199.1 26.1 198.7 26.6 198.6 26.8 C 198.5 26.7 198 26 197.5 25.6 C 196.5 25 195.3 24.9 195 24.9 C 193.5 24.9 192.7 25.5 192.3 25.9 C 192 26.1 191.7 26.3 191.5 26.6 L 191.5 25.2 L 189.1 25.2 L 189.1 25.2 Z" fill="#005efe"/>
	</g>
	<g>
		<path d="M 58.9 52.2 C 58.8 51.6 58.8 51.1 58.5 50.6 C 58.3 50.4 58.2 50.3 58.1 50.2 C 57.5 49.8 56.6 49.8 56.4 49.8 C 56.2 49.8 55.7 49.8 55.2 50.1 C 54.9 50.2 54.7 50.5 54.5 50.8 C 54.1 51.6 54 52.5 54 53.4 C 54 54.4 54.1 55.2 54.3 55.6 C 54.4 56 54.9 57 56.4 57 C 57.6 57 58.1 56.6 58.4 56.2 C 58.8 55.7 58.8 55.1 58.9 54.4 L 58 54.4 C 58 54.9 57.9 55.6 57.3 55.9 C 57 56.1 56.6 56.1 56.5 56.1 C 56 56.1 55.7 56 55.4 55.7 C 55.1 55.4 55.1 55.1 55 54.7 C 55 54.4 54.9 54 54.9 53.3 C 54.9 52.4 55.1 51.7 55.2 51.4 C 55.5 51 55.8 50.9 56 50.8 C 56.3 50.7 56.5 50.7 56.6 50.7 C 57.3 50.7 57.7 51 57.9 51.6 C 58 51.7 58 51.9 58 52.2 L 58.9 52.2 L 58.9 52.2 Z" fill="#00c300"/>
		<path d="M 60.9 49.8 L 60 49.8 L 60 54.5 C 60 55.4 60 55.8 60.3 56.2 C 60.4 56.5 60.8 57 61.5 57 C 61.7 57 62.2 56.9 62.7 56.5 C 62.8 56.3 62.9 56.2 63.1 56 L 63.1 56.8 L 63.9 56.8 L 63.9 49.9 L 63 49.9 L 63 54.1 C 63 54.9 63 55.2 62.8 55.5 C 62.5 56 62 56.1 61.8 56.1 C 60.9 56.1 60.9 55 60.9 54.8 L 60.9 49.8 L 60.9 49.8 Z" fill="#00c300"/>
		<path d="M 65 54.7 C 65 55.2 65.1 55.4 65.1 55.7 C 65.3 56.3 65.7 57 67.4 57 C 68.2 57 69.9 56.8 69.9 54.9 C 69.9 54.7 69.9 54.1 69.6 53.7 C 69.4 53.4 69.1 53.3 69 53.2 C 68.5 53 67.8 52.8 67.7 52.8 C 66.9 52.6 66.5 52.5 66.3 52.3 C 66.1 52 66.1 51.8 66.1 51.7 C 66.1 51.1 66.6 50.7 67.4 50.7 C 67.6 50.7 68.5 50.8 68.8 51.2 C 68.8 51.4 68.9 51.5 68.9 51.8 L 69.8 51.8 C 69.8 51.3 69.7 51.1 69.6 50.9 C 69.5 50.5 69 49.8 67.6 49.8 C 67.5 49.8 66.7 49.8 66.2 50.1 C 65.8 50.2 65.2 50.8 65.2 51.8 C 65.2 52.6 65.5 53 65.7 53.1 C 66 53.3 66.5 53.5 67.4 53.8 C 67.7 53.8 68.2 53.9 68.4 54.1 C 68.7 54.2 69.1 54.4 69.1 54.9 C 69.1 55.2 69 55.4 69 55.4 C 68.7 55.9 68.2 56 68 56 C 67.9 56.1 67.7 56.1 67.4 56.1 C 66.8 56.1 66.5 55.9 66.3 55.8 C 65.9 55.5 65.9 55.2 65.9 54.7 L 65 54.7 L 65 54.7 Z" fill="#00c300"/>
		<path d="M 70.2 49.8 L 70.2 50.7 L 71.1 50.7 L 71.1 55.7 C 71.1 55.9 71.1 56.1 71.2 56.3 C 71.2 56.4 71.3 56.5 71.3 56.6 C 71.6 57 72 57 72.9 57 L 73 56.1 C 72.1 56.1 72 56 71.9 55.4 L 71.9 51.4 L 71.9 50.7 L 73 50.7 L 73 49.8 L 72 49.8 L 72 48 L 71.1 48 L 71.1 49.8 L 70.2 49.8 L 70.2 49.8 Z" fill="#00c300"/>
		<path d="M 73.1 53.7 C 73.1 53.8 73.1 55.5 73.8 56.4 C 74.4 56.9 75.2 57 75.5 57 C 75.8 57 76.1 56.9 76.2 56.9 C 76.5 56.8 76.8 56.7 77.1 56.5 C 77.5 56 77.9 55.1 77.9 53.5 C 77.9 52.1 77.7 51.1 77.3 50.6 C 76.8 49.9 75.9 49.8 75.6 49.8 C 75.2 49.8 74.8 49.9 74.7 49.9 C 74.3 50.1 74 50.3 73.9 50.4 C 73.7 50.6 73.5 51 73.5 51.1 C 73.1 51.9 73 52.8 73.1 53.7 L 73.1 53.7 ZM 73.9 53.8 C 73.9 52.8 74.1 52 74.2 51.6 C 74.3 51.4 74.4 51.3 74.5 51.2 C 74.7 50.9 75.1 50.7 75.5 50.7 C 76.1 50.7 76.4 51 76.5 51.1 C 76.9 51.5 77.1 52.2 77.1 53.3 C 77.1 53.9 77 55.1 76.6 55.6 C 76.3 55.9 75.9 56.1 75.5 56.1 C 74.8 56.1 74.5 55.7 74.4 55.5 C 74.1 55.2 74 54.7 73.9 53.8 L 73.9 53.8 Z" fill="#00c300"/>
		<path d="M 79.1 50 L 79.1 56.9 L 80 56.9 L 80 51.9 C 80.1 51.3 80.2 51.1 80.6 50.9 C 80.9 50.7 81.1 50.7 81.2 50.7 C 81.4 50.7 81.5 50.8 81.7 50.9 C 82.1 51.1 82.1 51.5 82.1 51.9 L 82.1 57 L 83 57 L 83 51.9 C 83 51.7 83 51.6 83.1 51.5 C 83.3 51 83.7 50.7 84.2 50.7 C 84.3 50.7 84.6 50.7 84.8 50.9 C 85.1 51.2 85.1 51.5 85.1 51.9 L 85.1 57 L 86 57 L 86 51.7 C 86 51.4 86 51.1 85.9 50.9 C 85.8 50.2 85.2 50 85 49.9 C 84.8 49.9 84.6 49.9 84.6 49.9 C 84.4 49.9 83.8 49.9 83.3 50.3 C 83.1 50.5 82.9 50.8 82.9 50.8 C 82.9 50.8 82.7 50.4 82.5 50.2 C 82.1 49.9 81.6 49.8 81.5 49.8 C 80.8 49.8 80.5 50.2 80.3 50.4 C 80.2 50.5 80 50.6 79.9 50.7 L 79.9 50 L 79.1 50 L 79.1 50 Z" fill="#00c300"/>
		<path d="M 90 47 L 90 56.8 L 90.9 56.8 L 90.9 56.1 C 91.1 56.5 91.4 56.8 91.7 56.9 C 91.9 57 92 57 92.2 57 C 92.4 57 93 56.9 93.4 56.3 C 93.8 55.7 94 54.9 94 53.4 C 94 52.5 93.8 51.1 93.2 50.4 C 92.8 50 92.4 50 92.2 50 C 91.7 50 91.4 50.3 91.2 50.5 C 91.2 50.5 91.1 50.7 91 50.9 L 91 47 L 90 47 L 90 47 ZM 90.9 53.6 C 90.9 52.2 91 51.5 91.5 51.1 C 91.7 50.9 91.9 50.9 92 50.9 C 93.1 50.9 93.1 52.5 93.1 53.3 C 93.1 54 93.1 55 92.8 55.6 C 92.5 56.1 92.2 56.1 92 56.1 C 91.6 56.1 91.3 55.8 91.1 55.4 C 91 55 90.9 54.5 90.9 53.6 L 90.9 53.6 Z" fill="#00c300"/>
		<path d="M 96 50 L 95.1 50 L 95.1 54.6 C 95 55.5 95.1 55.9 95.3 56.3 C 95.5 56.5 95.9 57 96.6 57 C 96.8 57 97.4 57 97.8 56.5 C 98 56.4 98.1 56.2 98.2 56.1 L 98.2 56.9 L 99.1 56.9 L 99.1 50.1 L 98.2 50.1 L 98.2 54.2 C 98.2 54.9 98.1 55.3 97.9 55.6 C 97.6 56.1 97.1 56.1 96.9 56.1 C 95.9 56.1 96 55.1 96 54.9 L 96 50 L 96 50 Z" fill="#00c300"/>
		<path d="M 100.1 50 L 100.1 57 L 101 57 L 101 50 L 100.1 50 L 100.1 50 ZM 100.1 47 L 100.1 47.8 L 101 47.8 L 101 47 L 100.1 47 L 100.1 47 Z" fill="#00c300"/>
		<path d="M 102.1 47 L 102.1 57 L 103 57 L 103 47 L 102.1 47 L 102.1 47 Z" fill="#00c300"/>
		<path d="M 104 49.8 L 104 50.7 L 104.9 50.7 L 104.9 55.7 C 105 55.9 105 56.1 105 56.3 C 105.1 56.4 105.1 56.5 105.2 56.6 C 105.6 57 106 57 106.9 57 L 107 56.1 C 106 56.1 105.9 56 105.8 55.4 L 105.9 51.4 L 105.9 50.7 L 107 50.7 L 107 49.8 L 105.9 49.8 L 105.9 48 L 105 48 L 105 49.8 L 104 49.8 L 104 49.8 Z" fill="#00c300"/>
		<path d="M 115 52.3 C 115 51.8 114.9 51.2 114.6 50.8 C 114.4 50.5 114.3 50.4 114.2 50.4 C 113.6 50 112.7 50 112.5 50 C 112.2 50 111.8 50 111.3 50.2 C 110.9 50.4 110.7 50.6 110.5 50.9 C 110.1 51.7 110 52.6 110 53.5 C 110 54.5 110.1 55.2 110.3 55.6 C 110.4 56 110.9 57 112.5 57 C 113.7 57 114.3 56.6 114.5 56.2 C 114.9 55.7 115 55.1 115 54.5 L 114.1 54.4 C 114.1 54.9 114 55.7 113.4 56 C 113.1 56.1 112.6 56.1 112.5 56.1 C 112 56.1 111.7 56.1 111.4 55.7 C 111.1 55.5 111.1 55.1 111 54.8 C 111 54.5 110.9 54.1 110.9 53.4 C 110.9 52.5 111.1 51.9 111.3 51.5 C 111.5 51.1 111.9 51 112.1 50.9 C 112.3 50.9 112.5 50.9 112.6 50.9 C 113.3 50.9 113.8 51.2 114 51.7 C 114 51.8 114.1 52 114.1 52.3 L 115 52.3 L 115 52.3 Z" fill="#00c300"/>
		<path d="M 116.1 53.8 C 116.1 53.9 116 55.6 116.8 56.4 C 117.4 57 118.2 57 118.5 57 C 118.8 57 119 57 119.2 56.9 C 119.5 56.9 119.8 56.7 120.1 56.5 C 120.5 56 120.9 55.1 120.9 53.6 C 120.9 52.2 120.7 51.2 120.3 50.7 C 119.8 50 118.8 50 118.5 50 C 118.1 50 117.8 50 117.7 50.1 C 117.3 50.2 117 50.4 116.9 50.5 C 116.7 50.8 116.5 51.1 116.5 51.2 C 116.1 52 116 52.9 116.1 53.8 L 116.1 53.8 ZM 116.9 53.9 C 116.9 52.9 117.1 52.1 117.2 51.7 C 117.3 51.6 117.3 51.4 117.5 51.3 C 117.7 51 118.1 50.9 118.5 50.9 C 119.1 50.9 119.4 51.1 119.5 51.2 C 119.8 51.6 120 52.3 120.1 53.4 C 120.1 54 120 55.2 119.6 55.7 C 119.3 56 118.9 56.2 118.5 56.2 C 117.8 56.2 117.4 55.7 117.3 55.6 C 117.1 55.3 117 54.7 116.9 53.9 L 116.9 53.9 Z" fill="#00c300"/>
		<path d="M 122.1 50.1 L 122.1 56.9 L 122.9 56.9 L 122.9 52.2 C 123 51.8 123 51.5 123.2 51.2 C 123.5 51 123.8 50.9 124.1 50.9 C 124.4 50.9 124.7 51 124.9 51.2 C 125 51.3 125 51.6 125.1 51.8 L 125.1 57 L 125.9 57 L 125.9 51.7 C 125.9 51.3 125.9 50.9 125.6 50.5 C 125.3 50.2 124.8 50 124.4 50 C 123.7 50 123.3 50.4 123.1 50.7 C 123 50.8 122.9 50.9 122.9 50.9 L 122.9 50.1 L 122.1 50.1 L 122.1 50.1 Z" fill="#00c300"/>
		<path d="M 127.2 50 L 127.2 50.9 L 128.1 50.9 L 128.1 55.8 C 128.1 56 128.1 56.2 128.2 56.4 C 128.2 56.5 128.3 56.6 128.3 56.7 C 128.6 57.1 129 57 129.9 57 L 130 56.1 C 129.1 56.2 129 56.1 128.9 55.5 L 128.9 51.5 L 128.9 50.9 L 130 50.9 L 130 50 L 129 50 L 129 48.2 L 128.1 48.2 L 128.1 50 L 127.2 50 L 127.2 50 Z" fill="#00c300"/>
		<path d="M 134.9 53.9 C 134.9 52.9 134.9 51.6 134.4 50.8 C 134.1 50.3 133.3 50 132.5 50 C 131.8 50 131.2 50.3 131 50.4 C 130.8 50.6 130.6 50.8 130.5 51.1 C 130 52 130.1 53.7 130.1 53.9 C 130.1 55 130.2 55.6 130.5 56 C 130.9 56.7 131.5 57 132.5 57 C 133.7 57 134.2 56.5 134.4 56.2 C 134.8 55.7 134.8 55.3 134.8 54.8 L 134.1 54.8 C 133.9 55.5 133.7 55.9 133.2 56 C 132.9 56.1 132.7 56.2 132.6 56.2 C 131.8 56.2 131.4 55.7 131.3 55.6 C 131 55.2 131 54.4 130.9 53.9 L 134.9 53.9 L 134.9 53.9 ZM 131 53.1 C 131 52.6 131.1 51.8 131.4 51.4 C 131.6 51.1 132.1 50.9 132.5 50.9 C 132.8 50.9 133.3 50.9 133.6 51.3 C 134 51.8 134 52.5 134.1 53.1 L 131 53.1 L 131 53.1 Z" fill="#00c300"/>
		<path d="M 136.1 50.1 L 136.1 56.9 L 136.9 56.9 L 136.9 52.2 C 137 51.8 137 51.5 137.2 51.2 C 137.5 51 137.8 50.9 138.1 50.9 C 138.4 50.9 138.7 51 138.9 51.2 C 139 51.3 139 51.6 139.1 51.8 L 139.1 57 L 139.9 57 L 139.9 51.7 C 139.9 51.3 139.9 50.9 139.6 50.5 C 139.3 50.2 138.8 50 138.4 50 C 137.7 50 137.3 50.4 137.1 50.7 C 137 50.8 136.9 50.9 136.9 50.9 L 136.9 50.1 L 136.1 50.1 L 136.1 50.1 Z" fill="#00c300"/>
		<path d="M 141.2 50 L 141.2 50.9 L 142.1 50.9 L 142.1 55.8 C 142.1 56 142.1 56.2 142.2 56.4 C 142.2 56.5 142.3 56.6 142.3 56.7 C 142.6 57.1 143 57 143.9 57 L 144 56.1 C 143.1 56.2 143 56.1 142.9 55.5 L 142.9 51.5 L 142.9 50.9 L 144 50.9 L 144 50 L 143 50 L 143 48.2 L 142.1 48.2 L 142.1 50 L 141.2 50 L 141.2 50 Z" fill="#00c300"/>
		<path d="M 148.1 50.1 L 148.1 57 L 148.9 57 L 148.9 52 C 149 51.5 149.1 51.2 149.6 51 C 149.8 50.9 150 50.8 150.2 50.8 C 150.3 50.8 150.5 50.9 150.7 51 C 151 51.2 151.1 51.6 151.1 52 L 151.1 57 L 151.9 57 L 151.9 52 C 151.9 51.8 152 51.7 152 51.6 C 152.2 51.2 152.7 50.9 153.1 50.9 C 153.3 50.9 153.5 50.9 153.7 51 C 154.1 51.3 154.1 51.6 154.1 52 L 154.1 57 L 154.9 57 L 154.9 51.8 C 155 51.5 155 51.2 154.9 51 C 154.7 50.4 154.1 50.1 153.9 50.1 C 153.7 50 153.6 50 153.5 50 C 153.3 50 152.7 50 152.3 50.4 C 152.1 50.6 151.9 50.9 151.9 51 C 151.8 50.9 151.6 50.6 151.5 50.4 C 151.1 50 150.6 50 150.4 50 C 149.8 50 149.4 50.3 149.2 50.5 C 149.1 50.6 149 50.7 148.9 50.9 L 148.9 50.1 L 148.1 50.1 L 148.1 50.1 Z" fill="#00c300"/>
		<path d="M 157.1 52 C 157.1 51.6 157.2 51.3 157.6 51 C 157.8 50.9 158 50.9 158.4 50.9 C 158.6 50.9 159.2 50.9 159.4 50.9 C 159.5 51 159.7 51.1 159.8 51.2 C 160 51.4 160 51.6 160.1 51.8 C 160.1 51.9 160.1 52 160.1 52.1 C 160.1 52.5 159.9 52.7 159.7 52.8 C 159.2 53 158.4 53.1 157.9 53.2 C 157 53.4 156.5 53.6 156.2 54.3 C 156.1 54.7 156.1 55 156.1 55.1 C 156.1 55.9 156.4 56.4 156.6 56.6 C 157 57 157.6 57 157.9 57 C 158.7 57 159.3 56.7 159.5 56.5 C 159.6 56.4 159.8 56.3 160 56.1 C 160.2 56.4 160.3 56.7 160.6 56.9 C 160.8 56.9 160.9 57 161.1 57 C 161.2 57 161.4 56.9 161.5 56.9 L 161.5 56.2 C 161.4 56.2 161.3 56.2 161.2 56.2 C 161.1 56.1 161.1 56.1 161.1 56.1 C 161 56 160.9 55.8 160.9 55.7 L 160.9 51.5 C 160.9 51.2 160.8 50.9 160.6 50.7 C 160.5 50.5 160.4 50.4 160.3 50.3 C 159.9 50.1 159.1 50 158.5 50 C 157.1 50 156.6 50.5 156.4 51 C 156.3 51.4 156.3 51.7 156.3 52 L 157.1 52 L 157.1 52 ZM 160 53.4 C 160.1 54.8 160.1 55.4 159.3 55.9 C 159 56.1 158.6 56.2 158.2 56.2 C 157.1 56.2 156.9 55.4 156.9 55.1 C 156.9 54.6 157.2 54.4 157.3 54.3 C 157.6 54 158.1 53.9 158.6 53.8 C 159.1 53.7 159.6 53.5 160 53.4 L 160 53.4 Z" fill="#00c300"/>
		<path d="M 162.1 50.1 L 162.1 56.9 L 162.9 56.9 L 162.9 52.2 C 163 51.8 163 51.5 163.2 51.2 C 163.5 51 163.8 50.9 164.1 50.9 C 164.4 50.9 164.7 51 164.9 51.2 C 165 51.3 165 51.6 165.1 51.8 L 165.1 57 L 165.9 57 L 165.9 51.7 C 165.9 51.3 165.9 50.9 165.6 50.5 C 165.3 50.2 164.8 50 164.4 50 C 163.7 50 163.3 50.4 163.1 50.7 C 163 50.8 162.9 50.9 162.9 50.9 L 162.9 50.1 L 162.1 50.1 L 162.1 50.1 Z" fill="#00c300"/>
		<path d="M 168.1 52 C 168.1 51.6 168.2 51.3 168.6 51 C 168.8 50.9 169 50.9 169.4 50.9 C 169.6 50.9 170.2 50.9 170.4 50.9 C 170.5 51 170.7 51.1 170.8 51.2 C 171 51.4 171 51.6 171.1 51.8 C 171.1 51.9 171.1 52 171.1 52.1 C 171.1 52.5 170.9 52.7 170.7 52.8 C 170.2 53 169.4 53.1 168.9 53.2 C 168 53.4 167.5 53.6 167.2 54.3 C 167.1 54.7 167.1 55 167.1 55.1 C 167.1 55.9 167.4 56.4 167.6 56.6 C 168 57 168.6 57 168.9 57 C 169.7 57 170.3 56.7 170.5 56.5 C 170.6 56.4 170.8 56.3 171 56.1 C 171.2 56.4 171.3 56.7 171.6 56.9 C 171.8 56.9 171.9 57 172.1 57 C 172.2 57 172.4 56.9 172.5 56.9 L 172.5 56.2 C 172.4 56.2 172.3 56.2 172.2 56.2 C 172.1 56.1 172.1 56.1 172.1 56.1 C 172 56 171.9 55.8 171.9 55.7 L 171.9 51.5 C 171.9 51.2 171.8 50.9 171.6 50.7 C 171.5 50.5 171.4 50.4 171.3 50.3 C 170.9 50.1 170.1 50 169.5 50 C 168.1 50 167.6 50.5 167.4 51 C 167.3 51.4 167.3 51.7 167.3 52 L 168.1 52 L 168.1 52 ZM 171 53.4 C 171.1 54.8 171.1 55.4 170.3 55.9 C 170 56.1 169.6 56.2 169.2 56.2 C 168.1 56.2 167.9 55.4 167.9 55.1 C 167.9 54.6 168.2 54.4 168.3 54.3 C 168.6 54 169.1 53.9 169.6 53.8 C 170.1 53.7 170.6 53.5 171 53.4 L 171 53.4 Z" fill="#00c300"/>
		<path d="M 178 50.2 L 177.2 50.2 L 177.2 51 C 177 50.8 176.9 50.7 176.8 50.6 C 176.2 50 175.6 50 175.3 50 C 174.9 50 174.5 50.1 174.1 50.3 C 173.3 50.8 173.1 51.8 173 52.7 C 173 53 173 53.3 173 53.6 C 173 53.8 173 54.1 173 54.4 C 173.1 55 173.2 55.6 173.5 56.1 C 174 56.9 174.8 57 175.2 57 C 176 57 176.4 56.7 176.6 56.6 C 176.8 56.4 176.9 56.3 177 56.2 C 177 57 177 57.3 176.8 57.6 C 176.7 57.7 176.3 58.1 175.4 58.1 C 175 58.1 174.4 58 174.2 57.7 C 174.1 57.6 174.1 57.6 174.1 57.5 L 173.2 57.5 C 173.2 57.6 173.2 57.9 173.3 58 C 173.5 58.3 173.6 58.4 173.7 58.5 C 174.1 58.9 174.7 59 175.3 59 C 175.6 59 176 59 176.6 58.8 C 176.7 58.8 177 58.7 177.2 58.5 C 177.9 58 178 57.2 178 57.1 C 178 56.6 178 56.1 178 55.7 L 178 50.2 L 178 50.2 ZM 173.9 53.5 C 173.9 52.5 174 51.9 174.2 51.5 C 174.6 51 175.2 50.9 175.5 50.9 C 175.7 50.9 176.3 50.9 176.7 51.4 C 177.2 52.1 177.1 53.1 177.1 53.3 C 177.1 54.6 177 55.5 176.3 55.9 C 176 56.1 175.6 56.1 175.5 56.1 C 174.8 56.1 174.5 55.8 174.3 55.6 C 173.9 55.1 173.9 54.1 173.9 53.5 L 173.9 53.5 Z" fill="#00c300"/>
		<path d="M 183.9 53.9 C 183.9 52.8 183.9 51.5 183.4 50.7 C 183 50.1 182.3 49.8 181.5 49.8 C 180.7 49.8 180.2 50.1 180 50.3 C 179.7 50.4 179.6 50.7 179.4 50.9 C 179 51.9 179 53.6 179 53.8 C 179 55 179.1 55.5 179.5 56 C 179.8 56.7 180.5 57 181.4 57 C 182.7 57 183.2 56.5 183.4 56.1 C 183.7 55.7 183.8 55.3 183.8 54.8 L 183 54.8 C 182.8 55.5 182.7 55.8 182.1 56 C 181.9 56.1 181.6 56.1 181.5 56.1 C 180.7 56.1 180.4 55.7 180.3 55.6 C 179.9 55.1 179.9 54.4 179.9 53.9 L 183.9 53.9 L 183.9 53.9 ZM 179.9 53 C 179.9 52.5 180 51.7 180.3 51.3 C 180.6 50.9 181 50.7 181.5 50.7 C 181.7 50.7 182.2 50.8 182.6 51.2 C 182.9 51.7 183 52.4 183 53 L 179.9 53 L 179.9 53 Z" fill="#00c300"/>
		<path d="M 185 50 L 185 56.9 L 185.9 56.9 L 185.9 51.9 C 186 51.3 186.1 51.1 186.6 50.9 C 186.8 50.7 187 50.7 187.1 50.7 C 187.3 50.7 187.5 50.8 187.6 50.9 C 188 51.1 188 51.5 188 51.9 L 188 57 L 188.9 57 L 188.9 51.9 C 188.9 51.7 188.9 51.6 189 51.5 C 189.2 51 189.7 50.7 190.1 50.7 C 190.2 50.7 190.5 50.7 190.7 50.9 C 191 51.2 191 51.5 191 51.9 L 191 57 L 191.9 57 L 191.9 51.7 C 191.9 51.4 191.9 51.1 191.9 50.9 C 191.7 50.2 191.1 50 190.9 49.9 C 190.7 49.9 190.6 49.9 190.5 49.9 C 190.3 49.9 189.7 49.9 189.3 50.3 C 189 50.5 188.9 50.8 188.8 50.8 C 188.8 50.8 188.6 50.4 188.4 50.2 C 188.1 49.9 187.6 49.8 187.4 49.8 C 186.7 49.8 186.4 50.2 186.2 50.4 C 186.1 50.5 186 50.6 185.9 50.7 L 185.9 50 L 185 50 L 185 50 Z" fill="#00c300"/>
		<path d="M 197.9 53.9 C 197.9 52.8 197.9 51.5 197.4 50.7 C 197.1 50.1 196.3 49.8 195.5 49.8 C 194.8 49.8 194.2 50.1 194 50.3 C 193.8 50.4 193.6 50.7 193.5 50.9 C 193 51.9 193 53.6 193 53.8 C 193 55 193.2 55.5 193.5 56 C 193.9 56.7 194.5 57 195.5 57 C 196.7 57 197.2 56.5 197.4 56.1 C 197.7 55.7 197.8 55.3 197.8 54.8 L 197.1 54.8 C 196.9 55.5 196.7 55.8 196.2 56 C 195.9 56.1 195.6 56.1 195.5 56.1 C 194.8 56.1 194.4 55.7 194.3 55.6 C 194 55.1 193.9 54.4 193.9 53.9 L 197.9 53.9 L 197.9 53.9 ZM 193.9 53 C 194 52.5 194.1 51.7 194.4 51.3 C 194.6 50.9 195.1 50.7 195.5 50.7 C 195.8 50.7 196.3 50.8 196.6 51.2 C 197 51.7 197 52.4 197 53 L 193.9 53 L 193.9 53 Z" fill="#00c300"/>
		<path d="M 199.1 50 L 199.1 56.9 L 199.9 56.9 L 199.9 52.1 C 200 51.7 200 51.4 200.2 51.1 C 200.5 50.9 200.8 50.7 201.1 50.7 C 201.4 50.7 201.7 50.8 201.8 51 C 202 51.2 202 51.4 202.1 51.7 L 202.1 56.9 L 202.9 56.9 L 202.9 51.6 C 202.9 51.1 202.9 50.7 202.6 50.4 C 202.3 50 201.8 49.8 201.4 49.8 C 200.7 49.8 200.3 50.3 200.1 50.5 C 200 50.6 199.9 50.7 199.9 50.8 L 199.9 50 L 199.1 50 L 199.1 50 Z" fill="#00c300"/>
		<path d="M 204.2 49.8 L 204.2 50.7 L 205.1 50.7 L 205.1 55.7 C 205.1 55.9 205.1 56.1 205.2 56.3 C 205.2 56.4 205.3 56.5 205.3 56.6 C 205.6 57 206 57 206.9 57 L 207 56.1 C 206.1 56.1 206 56 205.9 55.4 L 205.9 51.4 L 205.9 50.7 L 207 50.7 L 207 49.8 L 206 49.8 L 206 48 L 205.1 48 L 205.1 49.8 L 204.2 49.8 L 204.2 49.8 Z" fill="#00c300"/>
	</g>
</svg>